<svg width="100%" viewBox="0 0 680 580" xmlns="http://www.w3.org/2000/svg">
<defs>
<marker id="arrow" viewBox="0 0 10 10" refX="8" refY="5" markerWidth="6" markerHeight="6" orient="auto-start-reverse"><path d="M2 1L8 5L2 9" fill="none" stroke="context-stroke" stroke-width="1.5" stroke-linecap="round" stroke-linejoin="round"/></marker>
<style>
text { font-family: Arial, sans-serif; fill: #333; }
.th { font-size: 14px; font-weight: 500; }
.ts { font-size: 12px; }
.c-purple rect { fill: #EEEDFE; stroke: #534AB7; }
.c-purple text { fill: #3C3489; }
.c-teal rect { fill: #E1F5EE; stroke: #0F6E56; }
.c-teal text { fill: #085041; }
.c-amber rect { fill: #FAEEDA; stroke: #854F0B; }
.c-amber text { fill: #633806; }
.c-coral rect { fill: #FAECE7; stroke: #993C1D; }
.c-coral text { fill: #712B13; }
.c-gray rect { fill: #F1EFE8; stroke: #5F5E5A; }
.c-gray text { fill: #444441; }
.arr { stroke: #888780; stroke-width: 1.2; fill: none; }
</style>
</defs>

<rect x="20" y="20" width="640" height="540" rx="16" fill="none" stroke="#B4B2A9" stroke-width="1" stroke-dasharray="6 4"/>
<text class="ts" x="36" y="40" fill="#888780">HotSwapPlatform</text>

<g class="c-purple">
  <rect x="220" y="190" width="240" height="130" rx="12" stroke-width="0.5"/>
  <text class="th" x="340" y="222" text-anchor="middle" dominant-baseline="central">Core domain</text>
  <text class="ts" x="340" y="244" text-anchor="middle" dominant-baseline="central">MessageService</text>
  <text class="ts" x="340" y="262" text-anchor="middle" dominant-baseline="central">FakeBackgroundSource</text>
  <text class="ts" x="340" y="280" text-anchor="middle" dominant-baseline="central">Message (domain)</text>
</g>

<text class="ts" x="340" y="186" text-anchor="middle" fill="#888780">— Ports —</text>

<rect x="30" y="100" width="155" height="360" rx="10" fill="none" stroke="#D3D1C7" stroke-width="0.5" stroke-dasharray="4 3"/>
<text class="ts" x="107" y="94" text-anchor="middle" fill="#888780">UI adapters</text>

<g class="c-teal">
  <rect x="40" y="108" width="135" height="44" rx="8" stroke-width="0.5"/>
  <text class="th" x="107" y="126" text-anchor="middle" dominant-baseline="central">React SPA</text>
  <text class="ts" x="107" y="144" text-anchor="middle" dominant-baseline="central">AI · UI · DB tabs</text>
</g>
<g class="c-teal">
  <rect x="40" y="168" width="135" height="44" rx="8" stroke-width="0.5"/>
  <text class="th" x="107" y="186" text-anchor="middle" dominant-baseline="central">Thymeleaf UI</text>
  <text class="ts" x="107" y="204" text-anchor="middle" dominant-baseline="central">HTMX message log</text>
</g>
<g class="c-teal">
  <rect x="40" y="228" width="135" height="44" rx="8" stroke-width="0.5"/>
  <text class="th" x="107" y="246" text-anchor="middle" dominant-baseline="central">Swing UI</text>
  <text class="ts" x="107" y="264" text-anchor="middle" dominant-baseline="central">Desktop window</text>
</g>
<g class="c-teal">
  <rect x="40" y="288" width="135" height="44" rx="8" stroke-width="0.5"/>
  <text class="th" x="107" y="306" text-anchor="middle" dominant-baseline="central">REST API</text>
  <text class="ts" x="107" y="324" text-anchor="middle" dominant-baseline="central">AI · UI adapter control</text>
</g>
<g class="c-gray">
  <rect x="40" y="348" width="135" height="44" rx="8" stroke-width="0.5"/>
  <text class="th" x="107" y="362" text-anchor="middle" dominant-baseline="central">MultiUISelector</text>
  <text class="ts" x="107" y="380" text-anchor="middle" dominant-baseline="central">Hot-swap at runtime</text>
</g>

<rect x="495" y="100" width="155" height="200" rx="10" fill="none" stroke="#D3D1C7" stroke-width="0.5" stroke-dasharray="4 3"/>
<text class="ts" x="572" y="94" text-anchor="middle" fill="#888780">AI adapters</text>

<g class="c-amber">
  <rect x="505" y="108" width="135" height="44" rx="8" stroke-width="0.5"/>
  <text class="th" x="572" y="126" text-anchor="middle" dominant-baseline="central">Ollama AI</text>
  <text class="ts" x="572" y="144" text-anchor="middle" dominant-baseline="central">llama3 via Spring AI</text>
</g>
<g class="c-amber">
  <rect x="505" y="168" width="135" height="44" rx="8" stroke-width="0.5"/>
  <text class="th" x="572" y="186" text-anchor="middle" dominant-baseline="central">Dummy AI</text>
  <text class="ts" x="572" y="204" text-anchor="middle" dominant-baseline="central">No dependencies</text>
</g>
<g class="c-gray">
  <rect x="505" y="228" width="135" height="44" rx="8" stroke-width="0.5"/>
  <text class="th" x="572" y="246" text-anchor="middle" dominant-baseline="central">SingletonSelector</text>
  <text class="ts" x="572" y="264" text-anchor="middle" dominant-baseline="central">Hot-swap at runtime</text>
</g>

<rect x="220" y="410" width="240" height="120" rx="10" fill="none" stroke="#D3D1C7" stroke-width="0.5" stroke-dasharray="4 3"/>
<text class="ts" x="340" y="404" text-anchor="middle" fill="#888780">DB adapter</text>

<g class="c-coral">
  <rect x="230" y="418" width="220" height="44" rx="8" stroke-width="0.5"/>
  <text class="th" x="340" y="436" text-anchor="middle" dominant-baseline="central">JPA Repository</text>
  <text class="ts" x="340" y="454" text-anchor="middle" dominant-baseline="central">PostgreSQL · MessageEntity</text>
</g>
<g class="c-gray">
  <rect x="230" y="472" width="220" height="44" rx="8" stroke-width="0.5"/>
  <text class="th" x="340" y="490" text-anchor="middle" dominant-baseline="central">H2 (in-memory)</text>
  <text class="ts" x="340" y="508" text-anchor="middle" dominant-baseline="central">Default / dev mode</text>
</g>

<line x1="175" y1="244" x2="218" y2="255" class="arr" marker-end="url(#arrow)"/>
<line x1="462" y1="245" x2="503" y2="245" class="arr" marker-end="url(#arrow)"/>
<line x1="340" y1="322" x2="340" y2="408" class="arr" marker-end="url(#arrow)"/>

<text class="ts" x="186" y="238" fill="#888780">UIAdapterPort</text>
<text class="ts" x="466" y="238" fill="#888780">AIOutputPort</text>
<text class="ts" x="346" y="368" fill="#888780">MessageRepositoryPort</text>
</svg>
